<svg width="24" height="24" viewBox="0 0 24 24" fill="none" xmlns="http://www.w3.org/2000/svg">
<g clip-path="url(#clip0_43_1181)">
<path fill-rule="evenodd" clip-rule="evenodd" d="M4.875 13.5H3.375C2.96079 13.5 2.625 13.8358 2.625 14.25V19.5C2.625 19.9142 2.96079 20.25 3.375 20.25H4.875C6.73896 20.25 8.25 18.739 8.25 16.875C8.25 15.011 6.73896 13.5 4.875 13.5ZM4.875 18.75H4.125V15H4.875C5.91053 15 6.75 15.8395 6.75 16.875C6.75 17.9105 5.91053 18.75 4.875 18.75ZM20.7684 18.2897C21.0677 18.576 21.0782 19.0507 20.7919 19.35C20.2641 19.9182 19.5255 20.2437 18.75 20.25C17.0953 20.25 15.75 18.7359 15.75 16.875C15.75 15.0141 17.0953 13.5 18.75 13.5C19.5255 13.5063 20.2641 13.8318 20.7919 14.4C21.0718 14.7002 21.0583 15.1696 20.7618 15.4534C20.4652 15.7371 19.9957 15.7297 19.7081 15.4369C19.4621 15.1661 19.1157 15.0082 18.75 15C17.9231 15 17.25 15.8438 17.25 16.875C17.25 17.9062 17.9231 18.75 18.75 18.75C19.1157 18.7418 19.4621 18.5839 19.7081 18.3131C19.9945 18.0139 20.4692 18.0034 20.7684 18.2897ZM12 13.5C10.3453 13.5 9 15.0141 9 16.875C9 18.7359 10.3453 20.25 12 20.25C13.6547 20.25 15 18.7359 15 16.875C15 15.0141 13.6547 13.5 12 13.5ZM12 18.75C11.1731 18.75 10.5 17.9062 10.5 16.875C10.5 15.8438 11.1731 15 12 15C12.8269 15 13.5 15.8438 13.5 16.875C13.5 17.9062 12.8269 18.75 12 18.75ZM4.5 11.25C4.91421 11.25 5.25 10.9142 5.25 10.5V3.75H13.5V8.25C13.5 8.66421 13.8358 9 14.25 9H18.75V10.5C18.75 10.9142 19.0858 11.25 19.5 11.25C19.9142 11.25 20.25 10.9142 20.25 10.5V8.25C20.2502 8.05103 20.1712 7.86015 20.0306 7.71938L14.7806 2.46937C14.6399 2.32876 14.449 2.24984 14.25 2.25H5.25C4.42157 2.25 3.75 2.92157 3.75 3.75V10.5C3.75 10.9142 4.08579 11.25 4.5 11.25ZM15 4.81031L17.6897 7.5H15V4.81031Z" fill="#121417"/>
</g>
<defs>
<clipPath id="clip0_43_1181">
<rect width="24" height="24" fill="white"/>
</clipPath>
</defs>
</svg>
