<svg width="25" height="24" viewBox="0 0 25 24" fill="none" xmlns="http://www.w3.org/2000/svg">
<g clip-path="url(#clip0_31_485)">
<path fill-rule="evenodd" clip-rule="evenodd" d="M18.0499 3H7.54993C6.7215 3 6.04993 3.67157 6.04993 4.5V21C6.05006 21.2726 6.19807 21.5236 6.43651 21.6557C6.67495 21.7878 6.96628 21.7801 7.19743 21.6356L12.7999 18.1341L18.4034 21.6356C18.6345 21.7796 18.9254 21.787 19.1636 21.655C19.4017 21.523 19.5496 21.2723 19.5499 21V4.5C19.5499 3.67157 18.8784 3 18.0499 3ZM18.0499 4.5V15.1472L13.1965 12.1144C12.9533 11.9624 12.6447 11.9624 12.4015 12.1144L7.54993 15.1462V4.5H18.0499ZM13.1965 16.6144C12.9533 16.4624 12.6447 16.4624 12.4015 16.6144L7.54993 19.6472V16.9153L12.7999 13.6341L18.0499 16.9153V19.6472L13.1965 16.6144Z" fill="#4F6996"/>
</g>
<defs>
<clipPath id="clip0_31_485">
<rect width="24" height="24" fill="white" transform="translate(0.799927)"/>
</clipPath>
</defs>
</svg>
