<svg width="25" height="24" viewBox="0 0 25 24" fill="none" xmlns="http://www.w3.org/2000/svg">
<g clip-path="url(#clip0_31_478)">
<path fill-rule="evenodd" clip-rule="evenodd" d="M21.6 10.8328V19.5C21.6 20.3284 20.9284 21 20.1 21H16.35C15.5215 21 14.85 20.3284 14.85 19.5V15.75C14.85 15.3358 14.5142 15 14.1 15H11.1C10.6858 15 10.35 15.3358 10.35 15.75V19.5C10.35 20.3284 9.6784 21 8.84998 21H5.09998C4.27155 21 3.59998 20.3284 3.59998 19.5V10.8328C3.59991 10.4131 3.77571 10.0125 4.08466 9.72844L11.5847 2.65219L11.595 2.64188C12.1672 2.1215 13.0412 2.1215 13.6134 2.64188C13.6166 2.64554 13.6201 2.64899 13.6237 2.65219L21.1237 9.72844C21.4296 10.014 21.6022 10.4144 21.6 10.8328Z" fill="#0D121C"/>
</g>
<defs>
<clipPath id="clip0_31_478">
<rect width="24" height="24" fill="white" transform="translate(0.599976)"/>
</clipPath>
</defs>
</svg>
