<svg width="24" height="24" viewBox="0 0 24 24" fill="none" xmlns="http://www.w3.org/2000/svg">
<g clip-path="url(#clip0_43_1211)">
<path fill-rule="evenodd" clip-rule="evenodd" d="M22.4466 12.4688L19.4466 4.96875C19.3101 4.62755 18.9466 4.43545 18.5878 4.515L12.75 5.8125V3.75C12.75 3.33579 12.4142 3 12 3C11.5858 3 11.25 3.33579 11.25 3.75V6.14813L5.08687 7.51781C4.84565 7.5711 4.64613 7.73976 4.55344 7.96875V7.97437L1.55344 15.4688C1.51755 15.5581 1.4994 15.6537 1.5 15.75C1.5 17.9353 3.80062 18.75 5.25 18.75C6.69938 18.75 9 17.9353 9 15.75C9.0006 15.6537 8.98245 15.5581 8.94656 15.4688L6.27375 8.79094L11.25 7.6875V19.5H9.75C9.33579 19.5 9 19.8358 9 20.25C9 20.6642 9.33579 21 9.75 21H14.25C14.6642 21 15 20.6642 15 20.25C15 19.8358 14.6642 19.5 14.25 19.5H12.75V7.35187L17.5312 6.29063L15.0534 12.4688C15.0175 12.5581 14.9994 12.6537 15 12.75C15 14.9353 17.3006 15.75 18.75 15.75C20.1994 15.75 22.5 14.9353 22.5 12.75C22.5006 12.6537 22.4825 12.5581 22.4466 12.4688ZM5.25 17.25C4.54406 17.25 3.11625 16.9116 3.00656 15.8775L5.25 10.2694L7.49344 15.8775C7.38375 16.9116 5.95594 17.25 5.25 17.25ZM18.75 14.25C18.0441 14.25 16.6163 13.9116 16.5066 12.8775L18.75 7.26937L20.9934 12.8775C20.8837 13.9116 19.4559 14.25 18.75 14.25Z" fill="#121417"/>
</g>
<defs>
<clipPath id="clip0_43_1211">
<rect width="24" height="24" fill="white"/>
</clipPath>
</defs>
</svg>
