<svg width="25" height="24" viewBox="0 0 25 24" fill="none" xmlns="http://www.w3.org/2000/svg">
<g clip-path="url(#clip0_31_506)">
<path fill-rule="evenodd" clip-rule="evenodd" d="M22.0488 19.875C20.621 17.4066 18.4206 15.6366 15.8528 14.7975C18.4636 13.2433 19.7142 10.1364 18.9082 7.2069C18.1022 4.27741 15.4384 2.24745 12.4 2.24745C9.36169 2.24745 6.69781 4.27741 5.89184 7.2069C5.08587 10.1364 6.33647 13.2433 8.94721 14.7975C6.3794 15.6356 4.17909 17.4056 2.75127 19.875C2.60873 20.1074 2.60355 20.3989 2.73776 20.6363C2.87196 20.8736 3.1244 21.0194 3.39705 21.0171C3.6697 21.0147 3.9196 20.8646 4.04971 20.625C5.81596 17.5725 8.93784 15.75 12.4 15.75C15.8622 15.75 18.9841 17.5725 20.7503 20.625C20.8804 20.8646 21.1304 21.0147 21.403 21.0171C21.6756 21.0194 21.9281 20.8736 22.0623 20.6363C22.1965 20.3989 22.1913 20.1074 22.0488 19.875ZM7.15002 9C7.15002 6.1005 9.50053 3.75 12.4 3.75C15.2995 3.75 17.65 6.1005 17.65 9C17.65 11.8995 15.2995 14.25 12.4 14.25C9.50181 14.2469 7.15312 11.8982 7.15002 9Z" fill="#4F6996"/>
</g>
<defs>
<clipPath id="clip0_31_506">
<rect width="24" height="24" fill="white" transform="translate(0.400024)"/>
</clipPath>
</defs>
</svg>
