<svg width="24" height="24" viewBox="0 0 24 24" fill="none" xmlns="http://www.w3.org/2000/svg">
<g clip-path="url(#clip0_51_2929)">
<path fill-rule="evenodd" clip-rule="evenodd" d="M19.5 3.75H4.5C3.25736 3.75 2.25 4.75736 2.25 6V16.5C2.25 17.7426 3.25736 18.75 4.5 18.75H19.5C20.7426 18.75 21.75 17.7426 21.75 16.5V6C21.75 4.75736 20.7426 3.75 19.5 3.75ZM20.25 16.5C20.25 16.9142 19.9142 17.25 19.5 17.25H4.5C4.08579 17.25 3.75 16.9142 3.75 16.5V6C3.75 5.58579 4.08579 5.25 4.5 5.25H19.5C19.9142 5.25 20.25 5.58579 20.25 6V16.5ZM15.75 21C15.75 21.4142 15.4142 21.75 15 21.75H9C8.58579 21.75 8.25 21.4142 8.25 21C8.25 20.5858 8.58579 20.25 9 20.25H15C15.4142 20.25 15.75 20.5858 15.75 21Z" fill="#121417"/>
</g>
<defs>
<clipPath id="clip0_51_2929">
<rect width="24" height="24" fill="white"/>
</clipPath>
</defs>
</svg>
