<svg width="21" height="20" viewBox="0 0 21 20" fill="none" xmlns="http://www.w3.org/2000/svg">
<path fill-rule="evenodd" clip-rule="evenodd" d="M10.2 5.5C7.71467 5.5 5.69995 7.51472 5.69995 10C5.69995 12.4853 7.71467 14.5 10.2 14.5C12.6852 14.5 14.7 12.4853 14.7 10C14.6974 7.51579 12.6842 5.50258 10.2 5.5ZM10.2 13C8.5431 13 7.19995 11.6569 7.19995 10C7.19995 8.34315 8.5431 7 10.2 7C11.8568 7 13.2 8.34315 13.2 10C13.2 11.6569 11.8568 13 10.2 13ZM18.45 10.2025C18.4537 10.0675 18.4537 9.9325 18.45 9.7975L19.8487 8.05C19.9974 7.86393 20.0489 7.61827 19.9875 7.38813C19.7581 6.52619 19.4151 5.69861 18.9675 4.92719C18.8486 4.72249 18.6401 4.58592 18.405 4.55875L16.1812 4.31125C16.0887 4.21375 15.995 4.12 15.9 4.03L15.6375 1.80063C15.6101 1.56531 15.4731 1.35677 15.2681 1.23813C14.4964 0.791263 13.6688 0.448595 12.8071 0.219063C12.5768 0.157836 12.3312 0.209687 12.1453 0.35875L10.4025 1.75C10.2675 1.75 10.1325 1.75 9.99745 1.75L8.24995 0.354063C8.06388 0.205326 7.81822 0.153827 7.58808 0.215312C6.72628 0.445025 5.89875 0.788016 5.12714 1.23531C4.92244 1.35417 4.78587 1.56268 4.7587 1.79781L4.5112 4.02531C4.4137 4.11844 4.31995 4.21219 4.22995 4.30656L2.00058 4.5625C1.76526 4.58988 1.55672 4.72682 1.43808 4.93188C0.991214 5.70359 0.648546 6.5311 0.419014 7.39281C0.357788 7.6231 0.409638 7.86878 0.558701 8.05469L1.94995 9.7975C1.94995 9.9325 1.94995 10.0675 1.94995 10.2025L0.554014 11.95C0.405277 12.1361 0.353778 12.3817 0.415264 12.6119C0.644566 13.4738 0.987578 14.3014 1.43526 15.0728C1.55412 15.2775 1.76263 15.4141 1.99776 15.4412L4.22151 15.6887C4.31464 15.7862 4.40839 15.88 4.50276 15.97L4.76245 18.1994C4.78983 18.4347 4.92677 18.6432 5.13183 18.7619C5.90354 19.2087 6.73105 19.5514 7.59276 19.7809C7.82305 19.8422 8.06873 19.7903 8.25464 19.6413L9.99745 18.25C10.1325 18.2537 10.2675 18.2537 10.4025 18.25L12.15 19.6488C12.336 19.7975 12.5817 19.849 12.8118 19.7875C13.6738 19.5582 14.5013 19.2152 15.2728 18.7675C15.4775 18.6486 15.614 18.4401 15.6412 18.205L15.8887 15.9813C15.9862 15.8888 16.08 15.795 16.17 15.7L18.3993 15.4375C18.6346 15.4101 18.8432 15.2732 18.9618 15.0681C19.4087 14.2964 19.7514 13.4689 19.9809 12.6072C20.0421 12.3769 19.9903 12.1312 19.8412 11.9453L18.45 10.2025ZM16.9406 9.59313C16.9565 9.86414 16.9565 10.1359 16.9406 10.4069C16.9294 10.5924 16.9875 10.7755 17.1037 10.9206L18.434 12.5828C18.2814 13.0679 18.0859 13.5385 17.85 13.9891L15.7312 14.2291C15.5467 14.2495 15.3763 14.3377 15.2531 14.4766C15.0726 14.6795 14.8804 14.8717 14.6775 15.0522C14.5386 15.1754 14.4504 15.3458 14.43 15.5303L14.1946 17.6472C13.7442 17.8833 13.2736 18.0787 12.7884 18.2313L11.1253 16.9009C10.9922 16.7946 10.8269 16.7367 10.6565 16.7369H10.6115C10.3405 16.7528 10.0688 16.7528 9.79776 16.7369C9.61222 16.7257 9.42913 16.7838 9.28401 16.9L7.61714 18.2313C7.13201 18.0786 6.66141 17.8831 6.21089 17.6472L5.97089 15.5312C5.95041 15.3467 5.86222 15.1764 5.72339 15.0531C5.52043 14.8727 5.32822 14.6805 5.14776 14.4775C5.02451 14.3387 4.85415 14.2505 4.66964 14.23L2.55276 13.9937C2.31669 13.5433 2.12123 13.0727 1.9687 12.5875L3.29901 10.9244C3.41517 10.7793 3.47331 10.5962 3.46214 10.4106C3.4462 10.1396 3.4462 9.86789 3.46214 9.59688C3.47331 9.41133 3.41517 9.22824 3.29901 9.08313L1.9687 7.41719C2.12135 6.93206 2.31681 6.46146 2.55276 6.01094L4.6687 5.77094C4.85322 5.75046 5.02358 5.66227 5.14683 5.52344C5.32729 5.32048 5.51949 5.12827 5.72245 4.94781C5.86184 4.82448 5.95038 4.65373 5.97089 4.46875L6.2062 2.35281C6.65667 2.11674 7.12728 1.92128 7.61245 1.76875L9.27558 3.09906C9.42069 3.21522 9.60378 3.27336 9.78933 3.26219C10.0603 3.24625 10.3321 3.24625 10.6031 3.26219C10.7886 3.27336 10.9717 3.21522 11.1168 3.09906L12.7828 1.76875C13.2679 1.9214 13.7385 2.11685 14.189 2.35281L14.429 4.46875C14.4495 4.65326 14.5377 4.82362 14.6765 4.94688C14.8795 5.12733 15.0717 5.31954 15.2521 5.5225C15.3754 5.66133 15.5457 5.74952 15.7303 5.77L17.8471 6.00531C18.0832 6.45578 18.2787 6.9264 18.4312 7.41156L17.1009 9.07469C16.9836 9.22103 16.9254 9.406 16.9378 9.59313H16.9406Z" fill="#4F6996"/>
</svg>
