<svg width="24" height="24" viewBox="0 0 24 24" fill="none" xmlns="http://www.w3.org/2000/svg">
<g clip-path="url(#clip0_42_774)">
<path fill-rule="evenodd" clip-rule="evenodd" d="M19.875 14.25C19.875 14.8713 19.3713 15.375 18.75 15.375C18.1287 15.375 17.625 14.8713 17.625 14.25C17.625 13.6287 18.1287 13.125 18.75 13.125C19.3713 13.125 19.875 13.6287 19.875 14.25ZM19.4484 17.9334C19.1081 20.1276 17.2205 21.7471 15 21.75H12.75C10.2658 21.7474 8.25258 19.7342 8.25 17.25V13.4522C5.25028 13.0743 3.00038 10.5234 3 7.5V3.75C3 2.92157 3.67157 2.25 4.5 2.25H6C6.41421 2.25 6.75 2.58579 6.75 3C6.75 3.41421 6.41421 3.75 6 3.75H4.5V7.5C4.49989 8.70394 4.98223 9.85772 5.83916 10.7034C6.6961 11.549 7.85616 12.0161 9.06 12C11.5078 11.9681 13.5 9.91406 13.5 7.42219V3.75H12C11.5858 3.75 11.25 3.41421 11.25 3C11.25 2.58579 11.5858 2.25 12 2.25H13.5C14.3284 2.25 15 2.92157 15 3.75V7.42219C15 10.5009 12.7003 13.0744 9.75 13.4513V17.25C9.75 18.9069 11.0931 20.25 12.75 20.25H15C16.4031 20.2477 17.6179 19.2749 17.9269 17.9062C16.0506 17.4848 14.7973 15.7124 15.0252 13.803C15.2531 11.8935 16.8884 10.466 18.8111 10.4979C20.7338 10.5299 22.3208 12.0111 22.485 13.9271C22.6493 15.843 21.3377 17.5728 19.4484 17.9316V17.9334ZM21 14.25C21 13.0074 19.9926 12 18.75 12C17.5074 12 16.5 13.0074 16.5 14.25C16.5 15.4926 17.5074 16.5 18.75 16.5C19.9926 16.5 21 15.4926 21 14.25Z" fill="#121417"/>
</g>
<defs>
<clipPath id="clip0_42_774">
<rect width="24" height="24" fill="white"/>
</clipPath>
</defs>
</svg>
